<svg 
          width="14" 
          height="13.999999046325684" fill="none" 
          xmlns="http://www.w3.org/2000/svg">
          <path d="M 13 8 L 8 8 L 8 12.999999046325684 C 8 13.265215545892715 7.89464296400547 13.519570216536522 7.707106590270996 13.707106590270996 C 7.519570216536522 13.89464296400547 7.265216499567032 13.999999046325684 7 13.999999046325684 C 6.734783500432968 13.999999046325684 6.480429783463478 13.89464296400547 6.292893409729004 13.707106590270996 C 6.10535703599453 13.519570216536522 6 13.265215545892715 6 12.999999046325684 L 6 8 L 1 8 C 0.7347835004329681 8 0.4804297834634781 7.89464296400547 0.2928934097290039 7.707106590270996 C 0.10535703599452972 7.519570216536522 0 7.265216499567032 0 7 C 0 6.734783500432968 0.10535703599452972 6.480429783463478 0.2928934097290039 6.292893409729004 C 0.4804297834634781 6.10535703599453 0.7347835004329681 6 1 6 L 6 6 L 6 1 C 6 0.7347835004329681 6.10535703599453 0.4804293066263199 6.292893409729004 0.2928929328918457 C 6.480429783463478 0.10535655915737152 6.734783500432968 -8.881784197001252e-16 7 0 C 7.265216499567032 -8.881784197001252e-16 7.519570216536522 0.10535655915737152 7.707106590270996 0.2928929328918457 C 7.89464296400547 0.4804293066263199 8 0.7347835004329681 8 1 L 8 6 L 13 6 C 13.265216499567032 6 13.519571170210838 6.10535703599453 13.707107543945312 6.292893409729004 C 13.894643917679787 6.480429783463478 14 6.734783500432968 14 7 C 14 7.265216499567032 13.894643917679787 7.519570216536522 13.707107543945312 7.707106590270996 C 13.519571170210838 7.89464296400547 13.265216499567032 8 13 8 Z" fill="rgb(0,0,0)"/>
        </svg>