<svg 
          width="17.917404174804688" 
          height="12.916810989379883" fill="none" 
          xmlns="http://www.w3.org/2000/svg">
          <path d="M 10.513184865315756 1.2775000408023789 C 10.25235153734684 1.2508333718846865 9.913184493780136 1.2500000461450176 9.399851163228353 1.2500000461450176 L 8.959851264953613 1.2500000461450176 C 8.794090958933035 1.250000046145017 8.635120081404846 1.1841520980041507 8.51790984471639 1.066941856988761 C 8.400699608027935 0.9497316159733713 8.334851264953613 0.7907603352122963 8.334851264953613 0.6250000230725088 C 8.334851264953613 0.45923971093272126 8.400699608027935 0.3002684301716463 8.51790984471639 0.18305818915625663 C 8.635120081404846 0.06584794814086695 8.794090958933035 1.4802974208135537e-15 8.959851264953613 7.401487104067769e-16 L 9.430684248606365 7.401487104067769e-16 C 9.9056842426459 7.401487104067769e-16 10.30901797115803 -9.313226089630033e-8 10.642351309458416 0.03416657573944316 C 10.99651798605919 0.07083324356101485 11.324850966533026 0.15083314786860522 11.6340176264445 0.342499825087779 C 11.944850956400236 0.5341665023069527 12.162351223329704 0.7916665866166582 12.354017893473308 1.092499932247652 C 12.522351232667765 1.3574999326923345 12.691517385343712 1.6925000527449279 12.88735071818034 2.083333410241696 L 13.84985129038493 2.083333410241696 C 14.0865179648002 2.083333410241696 14.304017238318922 2.0833333947196526 14.484850565592449 2.100000061629057 C 14.680683898429077 2.1166667285384615 14.89318462709586 2.157500093355369 15.09985129038493 2.2750000998785045 C 15.32651796936989 2.4041667723069002 15.514018312096596 2.59166672459106 15.643184979756674 2.8183334119436503 C 15.760684981942177 3.02500008286203 15.801517550523084 3.2375000246448655 15.81818421681722 3.4333333647108795 C 15.834850883111358 3.614166698660053 15.834851264953613 3.8316667749366067 15.834851264953613 4.068333458088667 L 15.834851264953613 4.145833804272425 C 15.834851264953613 4.362500470990275 15.835684444755316 4.5941671934955055 15.765684445699057 4.814167200424936 C 15.718524344265461 4.961574931320018 15.648199990391731 5.100535429557522 15.557351112365723 5.225833449956322 C 15.422351111968359 5.41250012927576 15.235683880746366 5.54999997838622 15.060683886210125 5.677499980708825 L 15.017350514729818 5.71000040788314 L 14.786518414815268 5.880000013615634 L 15.192351341247559 6.691666691172312 C 15.761857430140177 6.765158227482637 16.30010416110357 6.994147434739906 16.747997601826988 7.353493644060948 C 17.195891042550407 7.71283985338199 17.536112082501255 8.188648575839746 17.73131052652995 8.728681727613461 C 17.926508970558643 9.268714879387176 17.969136660297714 9.852091089996026 17.854512532552086 10.41476288141976 C 17.739888404806457 10.977434672843494 17.4724455177784 11.497644759478709 17.081545193990074 11.91828135936833 C 16.690644870201748 12.33891795925795 16.19140202800433 12.643716392270292 15.638628005981445 12.799212610353967 C 15.085853983958563 12.954708828437642 14.500921815633776 12.954889467770885 13.948051134745281 12.799737131247355 C 13.395180453856787 12.644584794723825 12.895749062299728 12.340098876326156 12.504587173461914 11.919705513066736 C 12.1134252846241 11.499312149807317 11.845658545692762 10.97926741639692 11.730684439341228 10.41666705120848 L 7.439018090566 10.41666705120848 C 7.294686399400235 11.123130036736773 6.910553127527238 11.757970638013362 6.351707776387533 12.213616822032819 C 5.7928624252478285 12.669263006052276 5.093674709399541 12.917691289867795 4.372619390487671 12.916808605194003 C 3.6515640715758004 12.91592592052021 2.9529868563016257 12.66578517424232 2.3952587445576987 12.20877215632663 C 1.8375306328137717 11.75175913841094 1.4549528434872627 11.115980608343648 1.3123512268066406 10.40916640243305 C 0.9412433455387751 10.371829890138184 0.5985460430383682 10.193720885920115 0.35472979148228967 9.911464421270978 C 0.11091353992621106 9.62920795662184 -0.01548790722154081 9.2642605247776 0.0015179296800245843 8.891667058489848 L 0.0015179296800245843 8.84333404762152 C 0.0015179296800245843 8.564167363695256 0.0015179184265434742 8.386666860834639 0.014017918147146702 8.230833516384141 C 0.088075230208536 7.291436961249688 0.4948289692401886 6.409274029904834 1.1611435810724895 5.7429593934748535 C 1.8274581929047904 5.076644757044873 2.7096212903658548 4.669891103890777 3.649017810821533 4.595833789095487 C 3.8048511495192847 4.583333788913433 3.982351248462995 4.5833335025317306 4.261517922083537 4.5833335025317306 L 4.836517969767253 4.5833335025317306 C 5.584851304690043 4.5833335025317306 6.2098510066668196 4.583333440443558 6.7048509915669765 4.6500001080811755 C 7.228184342384339 4.720000109721556 7.70068479080995 4.874999976316358 8.079851468404135 5.2549999905431255 C 8.459851468602817 5.634166682134633 8.614851329475643 6.106667148003077 8.684851328531902 6.630000518139821 C 8.751517993708452 7.125000521313404 8.751517931620281 7.750000246362678 8.751517931620281 8.498333608910952 L 8.751517931620281 9.166667005063461 L 11.730684439341228 9.166667005063461 C 11.84256090472142 8.620304187474694 12.098385517795881 8.113755411420517 12.471693356831869 7.699424709992965 C 12.845001195867857 7.285094008565415 13.322232911984125 6.978030164350775 13.85401725769043 6.8100001941775945 L 11.822351614634197 2.7475000442062876 C 11.592351620395979 2.2875000387484863 11.440684733291468 1.98500014718805 11.299018065134685 1.7641668176233598 C 11.165684734781584 1.5541668064934002 11.070684206982454 1.4633332174308529 10.97735087076823 1.4058332167486276 C 10.884850869576137 1.3474998810135075 10.760684857765835 1.3033333746671762 10.513184865315756 1.2775000408023789 Z" fill="rgb(0,0,0)"/>
        </svg>