<svg 
          width="26.87610626220703" 
          height="19.375215530395508" fill="none" 
          xmlns="http://www.w3.org/2000/svg">
          <path d="M 15.769777297973633 1.9162499668831527 C 15.37852730602026 1.8762499654754683 14.869776740670204 1.8749999769274912 14.09977674484253 1.8749999769274912 L 13.43977689743042 1.8749999769274912 C 13.191136438399553 1.87499997692749 12.952680122107267 1.776228059577878 12.776864767074585 1.600412706708663 C 12.601049412041903 1.424597353839448 12.50227689743042 1.1861404444350074 12.50227689743042 0.9374999884637456 C 12.50227689743042 0.6888595324924839 12.601049412041903 0.45040262308804313 12.776864767074585 0.27458727021882806 C 12.952680122107267 0.09877191734961302 13.191136438399553 2.2204460219269738e-15 13.43977689743042 1.1102230109634869e-15 L 14.146026372909546 1.1102230109634869e-15 C 14.85852636396885 1.1102230109634869e-15 15.463526956737041 -1.396983844714761e-7 15.963526964187622 0.051249861086577246 C 16.494776979088783 0.10624986011176044 16.987276449799538 0.226249710666591 17.451026439666748 0.5137497123442126 C 17.917276434600353 0.8012497140218342 18.243526834994555 1.18749982147464 18.53102684020996 1.6387498177099955 C 18.783526849001646 2.0362497988115322 19.037276078015566 2.538749954156685 19.331026077270508 3.1249999615458184 L 20.774776935577393 3.1249999615458184 C 21.1297769472003 3.1249999615458184 21.45602585747838 3.1249999382627545 21.727275848388672 3.1499999373963274 C 22.021025847643614 3.1749999365299004 22.339776940643787 3.236249980740452 22.649776935577393 3.4124999818498916 C 22.989776954054832 3.6062499809558486 23.271027468144894 3.8874998955385864 23.46477746963501 4.227499909832211 C 23.641027472913265 4.537499900951162 23.702276325784624 4.8562497979361146 23.72727632522583 5.149999793576363 C 23.752276324667037 5.421249781148832 23.75227689743042 5.747499879505192 23.75227689743042 6.102499886759702 L 23.75227689743042 6.218750400313331 C 23.75227689743042 6.543750384393167 23.753526667132974 6.891250451046589 23.648526668548584 7.221250445197688 C 23.57778651639819 7.4423620306569 23.472299985587597 7.650802767753421 23.336026668548584 7.838749789100614 C 23.133526667952538 8.118749794297793 22.853525821119547 8.324999557811589 22.591025829315186 8.516249551881915 L 22.526025772094727 8.565000190243813 L 22.1797776222229 8.819999586291141 L 22.788527011871338 10.037499542699162 C 23.642786145210266 10.14773684173862 24.45015624165535 10.49122063571779 25.12199640274048 11.030239923168093 C 25.793836563825607 11.569259210618396 26.30416812375188 12.282972259175107 26.596965789794922 13.093021946963939 C 26.889763455837965 13.90307163475277 26.953704990446568 14.7781359075942 26.781768798828125 15.622143553186604 C 26.609832607209682 16.466151198779006 26.208668276667595 17.246466290323664 25.622317790985107 17.87742115910164 C 25.03596730530262 18.508376027879617 24.287103042006493 18.965573654894246 23.457942008972168 19.19881797053916 C 22.628780975937843 19.432062286184074 21.75138272345066 19.432333245170597 20.92207670211792 19.199604751840514 C 20.09277068078518 18.966876258510432 19.343623593449593 18.51014740339474 18.75688076019287 17.879557389544104 C 18.17013792693615 17.248967375693468 17.768487818539143 16.46890031397383 17.59602665901184 15.624999807729093 L 11.158527135848999 15.624999807729093 C 10.942029599100351 16.68469423386194 10.365829691290855 17.636955088905257 9.527561664581299 18.32042433129316 C 8.689293637871742 19.003893573681065 7.640512064099312 19.376535981062382 6.558929085731506 19.375211954116864 C 5.477346107363701 19.373887927171346 4.429480284452438 18.998676826222905 3.592888116836548 18.313157333091567 C 2.7562959492206573 17.62763783996023 2.182429265230894 16.673970091800108 1.968526840209961 15.613748835119736 C 1.4118650183081627 15.557744069434067 0.8978190645575523 15.290580576257115 0.5320946872234344 14.867195900122974 C 0.16637030988931656 14.443811223988833 -0.023231860832311213 13.896390103167281 0.002276894520036876 13.337499931244984 L 0.002276894520036876 13.265000418511017 C 0.002276894520036876 12.846250413233065 0.0022768776398152113 12.579999672047355 0.021026877220720053 12.346249666877101 C 0.13211284531280398 10.93715490353297 0.7422434538602829 9.613910571647569 1.7417153716087341 8.614438666197957 C 2.7411872893571854 7.614966760748346 4.064431935548782 7.0048363110486465 5.4735267162323 6.893750344323513 C 5.707276724278927 6.875000344973333 5.973526872694492 6.8749999154008 6.392276883125305 6.8749999154008 L 7.254776954650879 6.8749999154008 C 8.377276957035065 6.8749999154008 9.314776510000229 6.874999822268545 10.057276487350464 6.974999818802837 C 10.842276513576508 7.079999816095166 11.551027186214924 7.312499604543414 12.119777202606201 7.882499597827395 C 12.689777202904224 8.45124960722001 12.922276994213462 9.16000027113701 13.027276992797852 9.945000287703364 C 13.127276990562677 10.687500255916886 13.12727689743042 11.6249997973458 13.12727689743042 12.747499785917244 L 13.12727689743042 13.7499998308016 L 17.59602665901184 13.7499998308016 C 17.76384135708213 12.930455644757524 18.14757827669382 12.170632518075777 18.707540035247803 11.549136496525326 C 19.267501793801785 10.927640474974876 19.98334936797619 10.467044731324062 20.781025886535645 10.214999788470283 L 17.733527421951294 4.121249863455938 C 17.388527430593967 3.4312498892319674 17.1610270999372 2.977500074225494 16.948527097702026 2.64625009618303 C 16.748527102172375 2.331250094992817 16.60602631047368 2.1949997181054237 16.466026306152344 2.1087497213274276 C 16.327276304364204 2.0212497220316155 16.14102728664875 1.9549999657730215 15.769777297973633 1.9162499668831527 Z" fill="rgb(255,255,255)"/>
        </svg>