<svg 
          width="20" 
          height="20" fill="none" 
          xmlns="http://www.w3.org/2000/svg">
          <path d="M 5 15 L 8.199999809265137 8.199999809265137 L 15 5 L 11.800000190734863 11.800000190734863 L 5 15 Z M 10 9.100000381469727 C 9.761305153369904 9.100000381469727 9.53238633275032 9.19482085108757 9.363603591918945 9.363603591918945 C 9.19482085108757 9.53238633275032 9.100000381469727 9.761305153369904 9.100000381469727 10 C 9.100000381469727 10.238694846630096 9.19482085108757 10.46761366724968 9.363603591918945 10.636396408081055 C 9.53238633275032 10.80517914891243 9.761305153369904 10.899999618530273 10 10.899999618530273 C 10.238694846630096 10.899999618530273 10.46761366724968 10.80517914891243 10.636396408081055 10.636396408081055 C 10.80517914891243 10.46761366724968 10.899999618530273 10.238694846630096 10.899999618530273 10 C 10.899999618530273 9.761305153369904 10.80517914891243 9.53238633275032 10.636396408081055 9.363603591918945 C 10.46761366724968 9.19482085108757 10.238694846630096 9.100000381469727 10 9.100000381469727 Z M 10 0 C 11.313218712806702 4.440892098500626e-16 12.613578796386719 0.25865769386291504 13.826834678649902 0.761204719543457 C 15.040090560913086 1.263751745223999 16.142481982707977 2.00034636259079 17.071067810058594 2.9289321899414062 C 17.99965363740921 3.8575180172920227 18.736249208450317 4.959909439086914 19.23879623413086 6.173165321350098 C 19.7413432598114 7.386421203613281 19.999999999999996 8.686781287193298 20 10 C 19.999999999999996 12.652164936065674 18.946431636810303 15.195703983306885 17.071067810058594 17.071067810058594 C 15.195703983306885 18.946431636810303 12.652164936065674 20 10 20 C 8.686781287193298 20 7.386421203613281 19.7413432598114 6.173165321350098 19.23879623413086 C 4.959909439086914 18.736249208450317 3.8575180172920227 17.99965363740921 2.9289321899414062 17.071067810058594 C 1.0535683631896973 15.195703983306885 4.440892098500626e-16 12.652164936065674 0 10 C 8.881784197001252e-16 7.347835063934326 1.0535683631896973 4.804296016693115 2.9289321899414062 2.9289321899414062 C 4.804296016693115 1.0535683631896973 7.347835063934326 1.7763568394002505e-15 10 0 Z M 10 2 C 7.878268003463745 2.0000000000000018 5.84343683719635 2.842854857444763 4.343145847320557 4.343145847320557 C 2.842854857444763 5.84343683719635 2.0000000000000027 7.878268003463745 2 10 C 2.0000000000000027 12.121731996536255 2.842854857444763 14.156563639640808 4.343145847320557 15.656854629516602 C 5.84343683719635 17.157145619392395 7.878268003463745 17.999999999999996 10 18 C 12.121731996536255 17.999999999999996 14.156563639640808 17.157145619392395 15.656854629516602 15.656854629516602 C 17.157145619392395 14.156563639640808 17.999999999999996 12.121731996536255 18 10 C 17.999999999999996 7.878268003463745 17.157145619392395 5.84343683719635 15.656854629516602 4.343145847320557 C 14.156563639640808 2.842854857444763 12.121731996536255 2.000000000000001 10 2 Z" fill="rgb(0,0,0)"/>
        </svg>