<svg 
          width="17.5" 
          height="25" fill="none" 
          xmlns="http://www.w3.org/2000/svg">
          <path d="M 8.75 11.875 C 7.921198457479477 11.875000000000002 7.1263425052165985 11.54575988650322 6.5402913093566895 10.95970869064331 C 5.95424011349678 10.373657494783401 5.625 9.578801542520523 5.625 8.75 C 5.625 7.921198457479477 5.95424011349678 7.1263425052165985 6.5402913093566895 6.5402913093566895 C 7.1263425052165985 5.95424011349678 7.921198457479477 5.625 8.75 5.625 C 9.578801542520523 5.625000000000001 10.373657494783401 5.95424011349678 10.95970869064331 6.5402913093566895 C 11.54575988650322 7.1263425052165985 11.875 7.921198457479477 11.875 8.75 C 11.875 9.160380847752094 11.794169768691063 9.566743671894073 11.637123823165894 9.945886135101318 C 11.480077877640724 10.325028598308563 11.249891761690378 10.669525619596243 10.95970869064331 10.95970869064331 C 10.669525619596243 11.249891761690378 10.325028598308563 11.480077877640724 9.945886135101318 11.637123823165894 C 9.566743671894073 11.794169768691063 9.160380847752094 11.875 8.75 11.875 Z M 8.75 0 C 6.42935574054718 0 4.2037588357925415 0.9218722581863403 2.562815546989441 2.562815546989441 C 0.9218722581863403 4.2037588357925415 1.1102230246251565e-15 6.42935574054718 0 8.75 C 2.220446049250313e-15 15.3125 8.75 25 8.75 25 C 8.75 25 17.5 15.3125 17.5 8.75 C 17.5 6.42935574054718 16.578127145767212 4.2037588357925415 14.937183856964111 2.562815546989441 C 13.29624056816101 0.9218722581863403 11.07064425945282 1.6653345369377348e-15 8.75 0 Z" fill="rgb(255,255,255)"/>
        </svg>