<svg 
          width="18" 
          height="18" fill="none" 
          xmlns="http://www.w3.org/2000/svg">
          <path d="M 16.600000381469727 18 L 10.300000190734863 11.699999809265137 C 9.800000190734863 12.099999815225601 9.224999785423279 12.41666628420353 8.574999809265137 12.649999618530273 C 7.924999833106995 12.883332952857018 7.233333349227905 12.999999999999998 6.5 13 C 4.6833332777023315 13 3.146000027656555 12.370667099952698 1.8880000114440918 11.112000465393066 C 0.6299999952316284 9.853333830833435 0.0006666666595265269 8.315999984741211 0 6.5 C 0 4.6833332777023315 0.6293333768844604 3.146000027656555 1.8880000114440918 1.8880000114440918 C 3.146666646003723 0.6299999952316284 4.684000015258789 0.0006666666595265269 6.5 0 C 8.316666722297668 0 9.854000449180603 0.6293333768844604 11.112000465393066 1.8880000114440918 C 12.37000048160553 3.146666646003723 12.999333333340473 4.684000015258789 13 6.5 C 13 7.233333349227905 12.883332952857018 7.924999833106995 12.649999618530273 8.574999809265137 C 12.41666628420353 9.224999785423279 12.099999815225601 9.800000190734863 11.699999809265137 10.300000190734863 L 18 16.600000381469727 L 16.600000381469727 18 Z M 6.5 11 C 7.75 11 8.812666416168213 10.562333583831787 9.687999725341797 9.687000274658203 C 10.56333303451538 8.81166696548462 11.000666666659527 7.749333381652832 11 6.5 C 11 5.25 10.562333583831787 4.187333106994629 9.687000274658203 3.311999797821045 C 8.81166696548462 2.436666488647461 7.749333381652832 1.9993333333404735 6.5 2 C 5.25 2 4.187333106994629 2.437666893005371 3.311999797821045 3.313000202178955 C 2.436666488647461 4.188333511352539 1.9993333333404735 5.250666618347168 2 6.5 C 2 7.75 2.437666893005371 8.812666416168213 3.313000202178955 9.687999725341797 C 4.188333511352539 10.56333303451538 5.250666618347168 11.000666666659527 6.5 11 Z" fill="rgb(0,0,0)"/>
        </svg>