<svg 
          width="27.5" 
          height="27.5" fill="none" 
          xmlns="http://www.w3.org/2000/svg">
          <path d="M 21.32499933242798 27.5 L 23.399999141693115 27.5 C 24.44999910891056 27.5 25.312500474974513 26.687500849366188 25.437500476837158 25.662500858306885 L 27.5 5.062500238418579 L 21.25 5.062500238418579 L 21.25 0 L 18.787500858306885 0 L 18.787500858306885 5.062500238418579 L 12.575000524520874 5.062500238418579 L 12.949999570846558 7.987499833106995 C 15.087499618530273 8.574999831616879 17.087500169873238 9.637499526143074 18.287500143051147 10.812499523162842 C 20.08750021457672 12.587499469518661 21.32499933242798 14.424999356269836 21.32499933242798 17.424999475479126 L 21.32499933242798 27.5 Z M 0 26.25 L 0 25 L 18.787500858306885 25 L 18.787500858306885 26.25 C 18.787500858306885 26.92500002682209 18.224999979138374 27.5 17.5 27.5 L 1.25 27.5 C 0.5624999850988388 27.5 0 26.92500002682209 0 26.25 Z M 18.787500858306885 17.5 C 18.787500858306885 7.5 0 7.5 0 17.5 L 18.787500858306885 17.5 Z M 0 20 L 18.75 20 L 18.75 22.5 L 0 22.5 L 0 20 Z" fill="rgb(255,255,255)"/>
        </svg>